<svg xmlns="http://www.w3.org/2000/svg" xmlns:xlink="http://www.w3.org/1999/xlink" width="500" zoomAndPan="magnify" viewBox="0 0 375 374.999991" height="500" preserveAspectRatio="xMidYMid meet" version="1.0"><defs><g/><clipPath id="15fe5c4b3f"><path d="M 257.710938 98.390625 L 278.234375 98.390625 L 278.234375 118.976562 L 257.710938 118.976562 Z M 257.710938 98.390625 " clip-rule="nonzero"/></clipPath></defs><rect x="-37.5" width="450" fill="#ffffff" y="-37.499999" height="449.999989" fill-opacity="1"/><rect x="-37.5" width="450" fill="#3a6d8c" y="-37.499999" height="449.999989" fill-opacity="1"/><path stroke-linecap="butt" transform="matrix(0.75, 0, 0, 0.75, 96.761835, 96.887036)" fill="none" stroke-linejoin="miter" d="M -0.000154928 1.999577 L 200.984233 1.999577 " stroke="#ffffff" stroke-width="4" stroke-opacity="1" stroke-miterlimit="4"/><path stroke-linecap="butt" transform="matrix(0.75, 0.000000000000000352, -0.000000000000000352, 0.75, 96.761835, 275.112932)" fill="none" stroke-linejoin="miter" d="M -0.000154928 2.000465 L 241.968611 2.000465 " stroke="#ffffff" stroke-width="4" stroke-opacity="1" stroke-miterlimit="4"/><path stroke-linecap="butt" transform="matrix(0, -0.75, 0.75, 0, 95.258252, 276.609356)" fill="none" stroke-linejoin="miter" d="M -0.0000250187 1.999414 L 237.635407 1.999414 " stroke="#ffffff" stroke-width="4" stroke-opacity="1" stroke-miterlimit="4"/><path stroke-linecap="butt" transform="matrix(0, 0.75, -0.75, 0, 278.237799, 129.811794)" fill="none" stroke-linejoin="miter" d="M 0.000941499 1.999357 L 195.735329 1.999357 " stroke="#ffffff" stroke-width="4" stroke-opacity="1" stroke-miterlimit="4"/><g clip-path="url(#15fe5c4b3f)"><path fill="#f4f6fc" d="M 278.234375 98.390625 L 278.234375 118.992188 L 257.710938 118.992188 L 257.710938 98.390625 Z M 278.234375 98.390625 " fill-opacity="1" fill-rule="nonzero"/></g><g fill="#ffffff" fill-opacity="1"><g transform="translate(156.618496, 220.974119)"><g><path d="M 56.5 -4.796875 C 54.414062 -3.441406 51.785156 -2.179688 48.609375 -1.015625 C 45.441406 0.140625 41.988281 0.71875 38.25 0.71875 C 31.664062 0.71875 25.867188 -0.734375 20.859375 -3.640625 C 15.847656 -6.546875 11.992188 -10.460938 9.296875 -15.390625 C 6.597656 -20.316406 5.25 -25.742188 5.25 -31.671875 C 5.25 -38.015625 6.613281 -43.722656 9.34375 -48.796875 C 12.070312 -53.867188 15.851562 -57.84375 20.6875 -60.71875 C 25.519531 -63.59375 30.988281 -65.03125 37.09375 -65.03125 C 40.71875 -65.03125 44.097656 -64.554688 47.234375 -63.609375 C 50.378906 -62.660156 53.195312 -61.414062 55.6875 -59.875 L 52.21875 -51.78125 C 47.300781 -55.101562 42.347656 -56.765625 37.359375 -56.765625 C 33.210938 -56.765625 29.375 -55.664062 25.84375 -53.46875 C 22.3125 -51.269531 19.492188 -48.285156 17.390625 -44.515625 C 15.285156 -40.753906 14.234375 -36.625 14.234375 -32.125 C 14.234375 -27.488281 15.195312 -23.300781 17.125 -19.5625 C 19.050781 -15.832031 21.804688 -12.914062 25.390625 -10.8125 C 28.984375 -8.707031 33.125 -7.65625 37.8125 -7.65625 C 43.5625 -7.65625 48.570312 -9.285156 52.84375 -12.546875 Z M 56.5 -4.796875 "/></g></g></g></svg>